<svg viewBox="0 0 57 57" fill="none" xmlns="http://www.w3.org/2000/svg">
      <g filter="url(#filter0_i_7_314)">
        <path
          d="M26.8138 34.8176C26.375 35.2599 26.1276 35.857 26.125 36.4801C26.1256 36.7984 26.1902 37.1134 26.315 37.4063C26.5294 37.9096 26.911 38.3234 27.3952 38.5779C27.8794 38.8324 28.4367 38.9119 28.9728 38.803C29.5089 38.6941 29.9909 38.4035 30.3375 37.9802C30.6841 37.557 30.874 37.0271 30.875 36.4801C30.8724 35.857 30.625 35.2599 30.1863 34.8176C29.9655 34.5949 29.7028 34.4183 29.4134 34.2977C29.124 34.1771 28.8135 34.115 28.5 34.115C28.1865 34.115 27.8761 34.1771 27.5866 34.2977C27.2972 34.4183 27.0346 34.5949 26.8138 34.8176ZM46.6213 8.69255C46.3453 8.46936 46.0229 8.31083 45.6777 8.22863C45.3324 8.14643 44.9732 8.14264 44.6263 8.21755C42.0884 8.74942 39.4686 8.7562 36.928 8.23746C34.3875 7.71873 31.98 6.68547 29.8538 5.2013C29.4562 4.9255 28.9839 4.77771 28.5 4.77771C28.0162 4.77771 27.5438 4.9255 27.1463 5.2013C25.0183 6.68141 22.61 7.71043 20.0694 8.22507C17.5289 8.7397 14.91 8.72906 12.3738 8.1938C12.0269 8.11889 11.6676 8.12268 11.3224 8.20488C10.9771 8.28708 10.6547 8.44561 10.3788 8.6688C10.1032 8.89234 9.88125 9.17477 9.72918 9.49534C9.57711 9.81592 9.49881 10.1665 9.50001 10.5213V28.2151C9.4979 31.6202 10.3093 34.9766 11.8668 38.0047C13.4242 41.0328 15.6826 43.645 18.4538 45.6238L27.1225 51.7988C27.5247 52.0852 28.0062 52.2391 28.5 52.2391C28.9938 52.2391 29.4753 52.0852 29.8775 51.7988L38.5463 45.6238C41.3175 43.645 43.5758 41.0328 45.1332 38.0047C46.6907 34.9766 47.5021 31.6202 47.5 28.2151V10.5213C47.5012 10.1665 47.4229 9.81592 47.2708 9.49534C47.1188 9.17477 46.8968 8.89234 46.6213 8.6688V8.69255ZM42.75 28.2151C42.7518 30.8626 42.1213 33.4723 40.9109 35.827C39.7006 38.1816 37.9453 40.2132 35.7913 41.7526L28.5 46.9538L21.2088 41.7526C19.0547 40.2132 17.2995 38.1816 16.0891 35.827C14.8787 33.4723 14.2482 30.8626 14.25 28.2151V13.2526C19.229 13.6787 24.2156 12.5235 28.5 9.9513C32.7844 12.5235 37.771 13.6787 42.75 13.2526V28.2151ZM28.5 17.4801C27.2485 17.4793 26.0189 17.8081 24.9349 18.4335C23.8509 19.0589 22.9508 19.9587 22.325 21.0426C22.0411 21.5853 21.9778 22.2168 22.1485 22.8051C22.3192 23.3935 22.7106 23.8931 23.2409 24.1996C23.7712 24.5062 24.3995 24.596 24.9945 24.4502C25.5895 24.3045 26.1051 23.9345 26.4338 23.4176C26.642 23.0569 26.9415 22.7573 27.3021 22.5488C27.6627 22.3404 28.0717 22.2305 28.4882 22.2301C28.9047 22.2297 29.314 22.3388 29.675 22.5465C30.036 22.7542 30.336 23.0532 30.545 23.4135C30.754 23.7738 30.8645 24.1827 30.8656 24.5992C30.8666 25.0157 30.7581 25.4251 30.5509 25.7864C30.3437 26.1478 30.0452 26.4482 29.6852 26.6577C29.3252 26.8672 28.9165 26.9784 28.5 26.9801C27.8701 26.9801 27.266 27.2303 26.8206 27.6757C26.3752 28.1211 26.125 28.7252 26.125 29.3551C26.125 29.9849 26.3752 30.589 26.8206 31.0344C27.266 31.4798 27.8701 31.7301 28.5 31.7301C30.3897 31.7301 32.202 30.9794 33.5382 29.6432C34.8743 28.307 35.625 26.4947 35.625 24.6051C35.625 22.7154 34.8743 20.9031 33.5382 19.5669C32.202 18.2307 30.3897 17.4801 28.5 17.4801Z"
          fill="white"></path>
      </g>
      <defs>
        <filter
          id="filter0_i_7_314"
          x="0"
          y="0"
          width="57"
          height="61"
          filterUnits="userSpaceOnUse"
          color-interpolation-filters="sRGB"
        >
          <feFlood flood-opacity="0" result="BackgroundImageFix"></feFlood>
          <feBlend
            mode="normal"
            in="SourceGraphic"
            in2="BackgroundImageFix"
            result="shape"></feBlend>
          <feColorMatrix
            in="SourceAlpha"
            type="matrix"
            values="0 0 0 0 0 0 0 0 0 0 0 0 0 0 0 0 0 0 127 0"
            result="hardAlpha"></feColorMatrix>
          <feOffset dy="4"></feOffset>
          <feGaussianBlur stdDeviation="2"></feGaussianBlur>
          <feComposite in2="hardAlpha" operator="arithmetic" k2="-1" k3="1"
          ></feComposite>
          <feColorMatrix
            type="matrix"
            values="0 0 0 0 0 0 0 0 0 0 0 0 0 0 0 0 0 0 0.25 0"></feColorMatrix>
          <feBlend mode="normal" in2="shape" result="effect1_innerShadow_7_314"
          ></feBlend>
        </filter>
      </defs>
    </svg>